<svg width="166" height="54" viewBox="0 0 166 54" fill="none" xmlns="http://www.w3.org/2000/svg">
<path fill-rule="evenodd" clip-rule="evenodd" d="M9.8147 0.912994H156.526C159.787 0.912994 160.967 1.27821 162.159 1.95647C163.336 2.62377 164.298 3.65549 164.92 4.91732C165.553 6.19558 165.894 7.46079 165.894 10.9434V43.0563C165.894 46.5389 165.553 47.8041 164.92 49.0823C164.298 50.3442 163.336 51.3759 162.159 52.0432C160.967 52.7215 159.787 53.0867 156.539 53.0867H9.80254C6.55444 53.0867 5.37443 52.7215 4.18224 52.0432C3.00537 51.3759 2.04312 50.3442 1.42075 49.0823C0.788164 47.8041 0.44754 46.5389 0.44754 43.0563V10.9434C0.44754 7.46079 0.788164 6.19558 1.42075 4.91732C2.04312 3.65549 3.00537 2.62377 4.18224 1.95647C5.37443 1.27821 6.55444 0.912994 9.80254 0.912994H9.8147Z" fill="#293145"/>
<path d="M37.3687 27.039C37.393 24.5999 38.5852 22.3564 40.5195 21.0782C39.9135 20.1515 39.114 19.3894 38.1846 18.8527C37.2553 18.316 36.2219 18.0195 35.1668 17.9869C32.9284 17.726 30.7508 19.4217 29.6073 19.4217C28.4395 19.4217 26.6755 18.013 24.7778 18.0521C23.55 18.095 22.3534 18.4779 21.3046 19.1636C20.2558 19.8493 19.3903 20.8145 18.7925 21.9651C16.2013 26.7781 18.1356 33.8346 20.6173 37.7216C21.8581 39.6129 23.2936 41.7389 25.2035 41.6607C27.0526 41.5824 27.7582 40.3955 29.9844 40.3955C32.2107 40.3955 32.8554 41.6607 34.7897 41.6215C36.7848 41.5824 38.0378 39.7042 39.2421 37.7868C40.1302 36.4303 40.8236 34.9303 41.2737 33.352C40.1166 32.827 39.1293 31.9484 38.4349 30.8258C37.7405 29.7031 37.3697 28.3861 37.3687 27.039ZM33.707 15.4304C34.7948 14.0333 35.3316 12.2364 35.2033 10.4217C33.5367 10.6173 32.0039 11.4652 30.909 12.8086C30.3701 13.4655 29.9573 14.2299 29.6943 15.058C29.4312 15.8861 29.3232 16.7617 29.3762 17.6347C30.2067 17.6436 31.0283 17.4498 31.7786 17.0679C32.5289 16.6859 33.1884 16.126 33.707 15.4304Z" fill="white"/>
<path d="M62.8549 35.6608H57.1008L55.7139 40.0434H53.2809L58.7309 23.8435H61.2734L66.7234 40.0434H64.2417L62.8549 35.6608ZM57.6969 33.6391H62.2588L60.0082 26.5304H59.9474L57.6969 33.6391ZM78.4993 34.1347C78.4993 37.7999 76.6745 40.1608 73.9008 40.1608C73.2008 40.2008 72.5044 40.0287 71.8912 39.6643C71.2781 39.2998 70.773 38.7577 70.4338 38.0999H70.3851V43.9434H68.1224V28.2261H70.3121V30.1826H70.3486C70.7032 29.5257 71.2176 28.9846 71.8369 28.617C72.4561 28.2494 73.1569 28.0692 73.8643 28.0956C76.6623 28.0956 78.4993 30.4695 78.4993 34.1347ZM76.1757 34.1347C76.1757 31.7478 75.02 30.1695 73.2561 30.1695C71.5408 30.1695 70.3729 31.7739 70.3729 34.1347C70.3729 36.5086 71.5408 38.113 73.2683 38.113C75.02 38.113 76.1757 36.5478 76.1757 34.1347ZM90.6158 34.1347C90.6158 37.7999 88.791 40.1608 86.0295 40.1608C85.3294 40.2008 84.633 40.0287 84.0199 39.6643C83.4068 39.2998 82.9017 38.7577 82.5624 38.0999H82.5016V43.9434H80.251V28.2261H82.4408V30.1826H82.4773C82.8309 29.5277 83.3434 28.9879 83.9603 28.6204C84.5772 28.2529 85.2755 28.0716 85.9808 28.0956C88.7788 28.0956 90.6158 30.4695 90.6158 34.1347ZM88.3044 34.1347C88.3044 31.7478 87.1487 30.1695 85.3847 30.1695C83.6573 30.1695 82.5016 31.7739 82.5016 34.1347C82.5016 36.5086 83.6573 38.113 85.3847 38.113C87.1487 38.113 88.3044 36.5478 88.3044 34.1347ZM98.6326 35.5304C98.8029 37.1347 100.251 38.1912 102.246 38.1912C104.156 38.1912 105.53 37.1347 105.53 35.6869C105.53 34.4217 104.691 33.6782 102.732 33.1565L100.786 32.6478C98 31.9304 96.7227 30.5478 96.7227 28.2913C96.7227 25.4869 98.9854 23.5696 102.209 23.5696C105.409 23.5696 107.598 25.4869 107.671 28.2913H105.384C105.25 26.6739 103.997 25.6826 102.185 25.6826C100.36 25.6826 99.1192 26.6739 99.1192 28.1217C99.1192 29.2565 99.9099 29.9478 101.856 30.4565L103.523 30.8869C106.625 31.6695 107.902 33.013 107.902 35.3739C107.902 38.413 105.652 40.3043 102.075 40.3043C98.7299 40.3043 96.4672 38.4521 96.3212 35.5304H98.6326ZM112.793 25.4348V28.2261H114.885V30.1434H112.793V36.6652C112.793 37.6695 113.206 38.1391 114.131 38.1391C114.374 38.1391 114.618 38.113 114.861 38.0869V39.9912C114.459 40.0825 114.034 40.1217 113.62 40.1086C111.382 40.1086 110.518 39.1956 110.518 36.913V30.1434H108.912V28.2261H110.518V25.4348H112.793ZM116.09 34.1347C116.09 30.4174 118.133 28.0826 121.321 28.0826C124.508 28.0826 126.552 30.4304 126.552 34.1347C126.552 37.8651 124.52 40.1869 121.321 40.1869C118.121 40.1869 116.09 37.8651 116.09 34.1347ZM124.24 34.1347C124.24 31.5913 123.145 30.0913 121.321 30.0913C119.496 30.0913 118.401 31.5913 118.401 34.1347C118.401 36.6912 119.496 38.1782 121.321 38.1782C123.145 38.1782 124.24 36.6912 124.24 34.1347ZM128.413 28.2261H130.566V30.2347H130.615C130.919 28.9434 132.026 28.0565 133.267 28.1087C133.522 28.1087 133.79 28.1348 134.045 28.2V30.4695C133.715 30.3577 133.37 30.3048 133.023 30.313C132.694 30.2973 132.365 30.3586 132.059 30.4929C131.754 30.6271 131.479 30.831 131.255 31.0903C131.03 31.3497 130.861 31.6584 130.759 31.9949C130.657 32.3314 130.624 32.6877 130.663 33.0391V40.0434H128.413V28.2261ZM144.459 36.5738C144.155 38.713 142.208 40.1869 139.714 40.1869C136.515 40.1869 134.532 37.8782 134.532 34.1869C134.532 30.4826 136.527 28.0826 139.629 28.0826C142.67 28.0826 144.593 30.3261 144.593 33.913V34.7347H136.807V34.8912C136.772 35.3258 136.824 35.7633 136.959 36.1748C137.094 36.5863 137.308 36.9624 137.589 37.2781C137.87 37.5938 138.21 37.842 138.587 38.0061C138.964 38.1703 139.369 38.2467 139.775 38.2304C140.87 38.3347 141.904 37.6695 142.318 36.5738H144.459ZM136.819 33.0521H142.33C142.35 32.6613 142.295 32.2703 142.167 31.9034C142.04 31.5366 141.843 31.2019 141.59 30.9203C141.336 30.6387 141.031 30.4162 140.694 30.2668C140.357 30.1175 139.994 30.0444 139.629 30.0521C138.887 30.0521 138.175 30.3682 137.651 30.9308C137.126 31.4934 136.831 32.2565 136.831 33.0521H136.819Z" fill="white"/>
<path d="M57.4167 11.6476C57.8905 11.6126 58.3657 11.6907 58.8079 11.8763C59.2502 12.0619 59.6486 12.3503 59.9744 12.7208C60.3002 13.0913 60.5453 13.5347 60.692 14.019C60.8387 14.5033 60.8835 15.0165 60.823 15.5215C60.823 17.9998 59.57 19.4346 57.4167 19.4346H54.7891V11.6476H57.4167ZM55.9204 18.3259H57.2829C57.6209 18.3468 57.959 18.2871 58.2728 18.1509C58.5866 18.0148 58.8683 17.8056 59.0976 17.5386C59.3268 17.2716 59.498 16.9533 59.5986 16.6067C59.6992 16.2602 59.7268 15.894 59.6795 15.5346C59.7268 15.1752 59.6992 14.809 59.5986 14.4625C59.498 14.1159 59.3268 13.7976 59.0976 13.5306C58.8683 13.2635 58.5866 13.0544 58.2728 12.9182C57.959 12.7821 57.6209 12.7223 57.2829 12.7433H55.9204V18.3259ZM62.1003 16.4868C62.076 16.1068 62.1248 15.7255 62.2437 15.3666C62.3626 15.0077 62.549 14.6788 62.7915 14.4004C63.0339 14.1221 63.3271 13.9001 63.6529 13.7483C63.9788 13.5966 64.3302 13.5183 64.6854 13.5183C65.0406 13.5183 65.3921 13.5966 65.7179 13.7483C66.0437 13.9001 66.3369 14.1221 66.5793 14.4004C66.8218 14.6788 67.0082 15.0077 67.1271 15.3666C67.246 15.7255 67.2948 16.1068 67.2705 16.4868C67.2948 16.8667 67.246 17.248 67.1271 17.6069C67.0082 17.9658 66.8218 18.2947 66.5793 18.5731C66.3369 18.8515 66.0437 19.0734 65.7179 19.2252C65.3921 19.3769 65.0406 19.4553 64.6854 19.4553C64.3302 19.4553 63.9788 19.3769 63.6529 19.2252C63.3271 19.0734 63.0339 18.8515 62.7915 18.5731C62.549 18.2947 62.3626 17.9658 62.2437 17.6069C62.1248 17.248 62.076 16.8667 62.1003 16.4868ZM66.1513 16.4868C66.1513 15.2215 65.6282 14.4781 64.6915 14.4781C63.7426 14.4781 63.2195 15.2215 63.2195 16.4868C63.2195 17.7781 63.7426 18.5085 64.6793 18.5085C65.6282 18.5085 66.1513 17.765 66.1513 16.4868ZM74.1316 19.4346H73.0125L71.8811 15.1042H71.7959L70.6646 19.4346H69.5697L68.0491 13.565H69.1439L70.1171 18.0389H70.2023L71.3337 13.552H72.3677L73.4991 18.0389H73.5842L74.5574 13.552H75.6401L74.1316 19.4346ZM76.9053 13.565H77.9515V14.4911H78.0367C78.3165 13.7998 78.9734 13.3824 79.6668 13.4476C79.9332 13.4249 80.2009 13.4669 80.45 13.5705C80.6991 13.6741 80.9232 13.8367 81.1056 14.046C81.2881 14.2554 81.4241 14.5062 81.5035 14.7797C81.583 15.0533 81.6038 15.3425 81.5646 15.6259V19.4346H80.4697V15.9128C80.4697 14.9737 80.1047 14.5042 79.3018 14.5042C79.1204 14.4936 78.9389 14.5254 78.7701 14.5975C78.6012 14.6696 78.449 14.7802 78.324 14.9217C78.199 15.0631 78.1042 15.2321 78.0462 15.4167C77.9882 15.6014 77.9683 15.7974 77.988 15.9911V19.4346H76.9053V13.565ZM83.292 11.2694H84.3625V19.4346H83.2798L83.292 11.2694ZM85.871 16.4868C85.8467 16.1068 85.8955 15.7255 86.0144 15.3666C86.1333 15.0077 86.3197 14.6788 86.5622 14.4004C86.8046 14.1221 87.0978 13.9001 87.4236 13.7483C87.7495 13.5966 88.1009 13.5183 88.4561 13.5183C88.8113 13.5183 89.1628 13.5966 89.4886 13.7483C89.8144 13.9001 90.1076 14.1221 90.35 14.4004C90.5925 14.6788 90.7789 15.0077 90.8978 15.3666C91.0167 15.7255 91.0655 16.1068 91.0412 16.4868C91.0655 16.8667 91.0167 17.248 90.8978 17.6069C90.7789 17.9658 90.5925 18.2947 90.35 18.5731C90.1076 18.8515 89.8144 19.0734 89.4886 19.2252C89.1628 19.3769 88.8113 19.4553 88.4561 19.4553C88.1009 19.4553 87.7495 19.3769 87.4236 19.2252C87.0978 19.0734 86.8046 18.8515 86.5622 18.5731C86.3197 18.2947 86.1333 17.9658 86.0144 17.6069C85.8955 17.248 85.8467 16.8667 85.871 16.4868ZM89.922 16.4868C89.922 15.2215 89.3867 14.4781 88.4622 14.4781C87.5133 14.4781 86.9902 15.2215 86.9902 16.4868C86.9902 17.7781 87.5133 18.5085 88.45 18.5085C89.3867 18.5085 89.922 17.765 89.922 16.4868ZM92.1726 17.765C92.1726 16.7215 92.9025 16.1085 94.2163 16.0172L95.7005 15.9259V15.4172C95.7005 14.8042 95.3112 14.452 94.5691 14.452C93.9608 14.452 93.5472 14.6868 93.4377 15.1042H92.3794C92.501 14.0868 93.3769 13.4476 94.6178 13.4476C95.9924 13.4476 96.771 14.1781 96.771 15.4172V19.4346H95.7248V18.5998H95.6396C95.2868 19.2128 94.6664 19.565 93.9973 19.5259C93.7672 19.5514 93.5347 19.5249 93.3147 19.4481C93.0947 19.3713 92.8922 19.2459 92.7202 19.0799C92.5483 18.914 92.4107 18.7112 92.3164 18.4847C92.222 18.2582 92.173 18.0131 92.1726 17.765ZM95.7005 17.2694V16.7737L94.3623 16.865C93.608 16.9172 93.2674 17.2041 93.2674 17.7128C93.2674 18.2346 93.6932 18.5476 94.2771 18.5476C94.4495 18.5674 94.6237 18.5496 94.7895 18.4955C94.9553 18.4414 95.1092 18.3521 95.2421 18.2328C95.375 18.1134 95.484 17.9666 95.5628 17.8011C95.6415 17.6356 95.6884 17.4547 95.7005 17.2694ZM98.1943 16.4868C98.1943 14.6346 99.0824 13.4607 100.469 13.4607C101.163 13.4216 101.82 13.8259 102.148 14.4911H102.221V11.2694H103.316V19.4346H102.27V18.5085H102.184C101.832 19.1607 101.175 19.552 100.469 19.5259C99.0702 19.5259 98.1943 18.352 98.1943 16.4868ZM99.3135 16.4868C99.3135 17.7389 99.8609 18.4824 100.773 18.4824C101.686 18.4824 102.245 17.7259 102.245 16.4998C102.245 15.2737 101.674 14.5042 100.773 14.5042C99.8609 14.5042 99.3135 15.2607 99.3135 16.4868ZM107.78 16.4868C107.756 16.1068 107.805 15.7255 107.924 15.3666C108.043 15.0077 108.229 14.6788 108.472 14.4004C108.714 14.1221 109.007 13.9001 109.333 13.7483C109.659 13.5966 110.01 13.5183 110.366 13.5183C110.721 13.5183 111.072 13.5966 111.398 13.7483C111.724 13.9001 112.017 14.1221 112.259 14.4004C112.502 14.6788 112.688 15.0077 112.807 15.3666C112.926 15.7255 112.975 16.1068 112.951 16.4868C112.975 16.8667 112.926 17.248 112.807 17.6069C112.688 17.9658 112.502 18.2947 112.259 18.5731C112.017 18.8515 111.724 19.0734 111.398 19.2252C111.072 19.3769 110.721 19.4553 110.366 19.4553C110.01 19.4553 109.659 19.3769 109.333 19.2252C109.007 19.0734 108.714 18.8515 108.472 18.5731C108.229 18.2947 108.043 17.9658 107.924 17.6069C107.805 17.248 107.756 16.8667 107.78 16.4868ZM111.831 16.4868C111.831 15.2215 111.296 14.4781 110.372 14.4781C109.423 14.4781 108.9 15.2215 108.9 16.4868C108.9 17.7781 109.423 18.5085 110.359 18.5085C111.296 18.5085 111.831 17.765 111.831 16.4868ZM114.398 13.565H115.432V14.4911H115.517C115.797 13.7998 116.454 13.3824 117.16 13.4476C117.425 13.427 117.691 13.4705 117.939 13.575C118.187 13.6795 118.409 13.8424 118.59 14.0515C118.771 14.2606 118.906 14.5106 118.985 14.7832C119.064 15.0557 119.084 15.3437 119.045 15.6259V19.4346H117.975V15.9128C117.975 14.9737 117.586 14.5042 116.783 14.5042C116.602 14.4955 116.422 14.5288 116.255 14.6018C116.087 14.6747 115.937 14.7856 115.813 14.9269C115.689 15.0681 115.596 15.2363 115.538 15.42C115.481 15.6037 115.462 15.7985 115.481 15.9911V19.4346H114.386V13.565H114.398ZM125.164 12.0911V13.5911H126.344V14.5563H125.164V17.5824C125.164 18.1954 125.396 18.4694 125.931 18.4694L126.344 18.4433V19.4085C126.15 19.4476 125.955 19.4607 125.761 19.4607C124.544 19.4607 124.082 19.0041 124.082 17.8824V14.5563H123.206V13.5911H124.082V12.0911H125.164ZM127.816 11.2694H128.899V14.5042H128.984C129.276 13.8129 129.945 13.3824 130.651 13.4607C130.915 13.4449 131.179 13.4917 131.425 13.5978C131.67 13.704 131.891 13.8669 132.071 14.0749C132.251 14.2829 132.386 14.5309 132.467 14.8012C132.547 15.0715 132.571 15.3576 132.537 15.6389V19.4215H131.454V15.9259C131.454 14.9868 131.04 14.5172 130.286 14.5172C130.1 14.4992 129.912 14.5253 129.736 14.5937C129.56 14.662 129.4 14.771 129.268 14.9128C129.136 15.0546 129.034 15.2259 128.97 15.4145C128.907 15.6031 128.882 15.8044 128.899 16.0042V19.4346H127.816V11.2694ZM138.838 17.8433C138.69 18.3788 138.372 18.8418 137.938 19.1517C137.505 19.4615 136.984 19.5985 136.466 19.5389C136.106 19.5479 135.748 19.4732 135.417 19.3199C135.087 19.1666 134.791 18.9383 134.551 18.6507C134.31 18.3631 134.131 18.0231 134.025 17.6541C133.918 17.285 133.888 16.8957 133.936 16.5128C133.889 16.1282 133.919 15.7372 134.025 15.3662C134.131 14.9952 134.31 14.6529 134.55 14.3624C134.789 14.0719 135.085 13.8399 135.415 13.6821C135.746 13.5243 136.104 13.4444 136.466 13.4476C137.986 13.4476 138.899 14.5563 138.899 16.4085V16.7998H135.043V16.8781C135.026 17.0937 135.051 17.3107 135.117 17.5153C135.183 17.7198 135.288 17.9073 135.425 18.0658C135.563 18.2242 135.729 18.3501 135.915 18.4353C136.1 18.5206 136.301 18.5632 136.502 18.5607C137.025 18.6259 137.536 18.3389 137.804 17.8433H138.838ZM135.043 15.952H137.804C137.818 15.7556 137.793 15.5583 137.731 15.3727C137.67 15.1871 137.573 15.0172 137.448 14.8737C137.322 14.7302 137.17 14.6163 137.001 14.5392C136.832 14.4622 136.65 14.4236 136.466 14.4259C136.278 14.4224 136.091 14.4594 135.917 14.5349C135.743 14.6103 135.585 14.7226 135.452 14.865C135.319 15.0074 135.215 15.1771 135.144 15.3638C135.074 15.5506 135.039 15.7506 135.043 15.952Z" fill="white"/>
</svg>
