<svg width="167" height="54" viewBox="0 0 167 54" fill="none" xmlns="http://www.w3.org/2000/svg">
<path fill-rule="evenodd" clip-rule="evenodd" d="M10.0167 0.912964H156.728C159.989 0.912964 161.169 1.27818 162.361 1.95644C163.538 2.62374 164.5 3.65546 165.122 4.91729C165.755 6.19555 166.096 7.46076 166.096 10.9434V43.0563C166.096 46.5388 165.755 47.8041 165.122 49.0823C164.5 50.3442 163.538 51.3759 162.361 52.0432C161.169 52.7214 159.989 53.0866 156.741 53.0866H10.0045C6.75644 53.0866 5.57642 52.7214 4.38424 52.0432C3.20737 51.3759 2.24511 50.3442 1.62275 49.0823C0.99016 47.8041 0.649536 46.5388 0.649536 43.0563V10.9434C0.649536 7.46076 0.99016 6.19555 1.62275 4.91729C2.24511 3.65546 3.20737 2.62374 4.38424 1.95644C5.57642 1.27818 6.75644 0.912964 10.0045 0.912964H10.0167Z" fill="#293145"/>
<path fill-rule="evenodd" clip-rule="evenodd" d="M19.8215 39.7432L19.9674 39.7823C19.9181 39.7726 19.8693 39.7595 19.8215 39.7432ZM40.6239 24.8737C41.1713 25.1998 41.5119 25.6302 41.6214 26.0737L41.6457 26.2433C41.5971 26.7389 41.2443 27.2346 40.6117 27.6128L21.3908 39.3128C21.0015 39.5606 20.6244 39.665 20.2959 39.665C19.9553 39.665 19.6633 39.5476 19.42 39.3258L19.347 39.2476C19.0282 38.8352 18.8673 38.3084 18.8969 37.7737V14.7129C18.8969 14.0086 19.0915 13.4738 19.42 13.1477C19.6633 12.9259 19.9553 12.8086 20.2959 12.8086C20.6244 12.8086 21.0015 12.9259 21.3908 13.1607L40.6117 24.8737H40.6239ZM20.2837 12.652H20.454H20.2837ZM131.96 39.2084H134.222V22.9042H131.96V39.2084ZM152.397 28.7737L149.794 35.8432H149.721L147.02 28.7737H144.575L148.626 38.6606L146.315 44.1519H148.687L154.928 28.7737H152.397ZM139.526 37.3563C138.784 37.3563 137.75 36.965 137.75 35.9737C137.75 34.7085 139.04 34.2259 140.147 34.2259C141.157 34.2259 141.619 34.4606 142.227 34.7737C142.145 35.4817 141.826 36.1336 141.329 36.6085C140.832 37.0835 140.192 37.3491 139.526 37.3563ZM139.806 28.4215C138.152 28.4215 136.461 29.2041 135.755 30.9128L137.763 31.8259C138.2 30.9128 139.003 30.6259 139.831 30.6259C141.011 30.6259 142.203 31.3693 142.227 32.7128V32.8824C141.496 32.4676 140.682 32.2525 139.855 32.2563C137.69 32.2563 135.475 33.5346 135.475 35.9215C135.475 38.1128 137.264 39.5215 139.247 39.5215C140.779 39.5215 141.619 38.778 142.154 37.9171H142.227V39.1824H144.417V32.9215C144.417 30.0389 142.397 28.4215 139.794 28.4215H139.806ZM125.768 30.7693H122.544V25.1607H125.768C127.471 25.1607 128.444 26.6737 128.444 27.965C128.444 29.2302 127.471 30.7563 125.768 30.7563V30.7693ZM125.719 22.9042H120.269V39.2084H122.544V33.0259H125.707C128.225 33.0259 130.695 31.0693 130.695 27.965C130.695 24.8607 128.225 22.9042 125.707 22.9042H125.719ZM96.0482 37.3563C94.4911 37.3563 93.1773 35.9476 93.1773 34.0172C93.1773 32.0606 94.4911 30.6259 96.0482 30.6259C97.6054 30.6259 98.8219 32.0606 98.8219 34.0172C98.8219 35.9476 97.6054 37.3563 96.0482 37.3563ZM98.6638 29.6867H98.5786C98.2327 29.2843 97.8107 28.9656 97.3408 28.7519C96.8709 28.5382 96.3639 28.4345 95.8536 28.4476C94.5144 28.5019 93.2478 29.1142 92.3231 30.1543C91.3985 31.1945 90.8888 32.5803 90.9024 34.0172C90.8921 35.4492 91.4041 36.8289 92.329 37.862C93.2539 38.8951 94.5187 39.5 95.8536 39.5476C96.3663 39.5617 96.8757 39.4559 97.3463 39.2373C97.8169 39.0188 98.2375 38.6929 98.5786 38.2824H98.6638V39.078C98.6638 41.2041 97.6054 42.3389 95.9023 42.3389C95.3329 42.3272 94.7798 42.1335 94.3138 41.7826C93.8478 41.4317 93.4902 40.9396 93.2868 40.3693L91.316 41.2432C91.6874 42.2192 92.3226 43.0537 93.1399 43.6394C93.9572 44.2252 94.9192 44.5354 95.9023 44.5302C98.5664 44.5302 100.817 42.8345 100.817 38.7519V28.7867H98.6638V29.6998V29.6867ZM102.386 39.2084H104.661V22.9042H102.386V39.2084ZM108.007 33.8215C107.982 33.4181 108.033 33.0134 108.156 32.6312C108.279 32.249 108.472 31.897 108.723 31.5958C108.975 31.2945 109.28 31.0501 109.62 30.8769C109.961 30.7036 110.331 30.605 110.707 30.5867C111.62 30.5867 112.386 31.0693 112.629 31.7606L108.007 33.8345V33.8215ZM115.062 31.9824C114.637 30.7433 113.323 28.4607 110.634 28.4607C107.97 28.4607 105.756 30.6911 105.756 33.9911C105.756 37.1084 107.946 39.5476 110.89 39.5476C113.262 39.5476 114.637 37.9824 115.208 37.0824L113.444 35.8302C113.179 36.3003 112.803 36.6881 112.355 36.9557C111.908 37.2232 111.402 37.3613 110.89 37.3563C109.734 37.3563 108.907 36.7954 108.384 35.6737L115.306 32.6085L115.062 31.9824ZM59.9543 30.1563V32.5041H65.1974C65.1218 33.6067 64.7018 34.6498 64.0053 35.465C63.4781 36.0409 62.844 36.4917 62.1441 36.7883C61.4442 37.0848 60.694 37.2206 59.9421 37.1867C59.1797 37.1851 58.4252 37.0213 57.7222 36.7049C57.0192 36.3886 56.3817 35.9259 55.8466 35.3437C55.3115 34.7614 54.8893 34.0712 54.6046 33.3129C54.32 32.5546 54.1783 31.7432 54.188 30.9259C54.1737 29.7122 54.4929 28.5208 55.1058 27.5003C55.7187 26.4798 56.5982 25.6753 57.6346 25.1872C58.6711 24.699 59.8186 24.5487 60.9342 24.7551C62.0497 24.9614 63.084 25.5153 63.9079 26.3476L65.4529 24.6911C64.7279 23.9222 63.867 23.3162 62.9207 22.9086C61.9744 22.5009 60.9618 22.2999 59.9421 22.3172C57.8013 22.317 55.7464 23.2198 54.2213 24.8305C52.6962 26.4413 51.8234 28.6308 51.7915 30.9259C51.8234 33.2209 52.6962 35.4104 54.2213 37.0212C55.7464 38.632 57.8013 39.5348 59.9421 39.5345C62.3386 39.5345 64.1391 38.6997 65.5502 37.1215C66.8292 35.623 67.5104 33.6473 67.448 31.6172C67.448 31.0693 67.4115 30.5737 67.3263 30.1563H59.9421H59.9543ZM73.4211 37.3563C71.8518 37.3563 70.5014 35.9737 70.5014 33.9911C70.5014 31.9954 71.8518 30.6389 73.4211 30.6389C75.0026 30.6389 76.3407 31.9954 76.3407 33.9911C76.3407 35.9737 75.0026 37.3563 73.4211 37.3563ZM73.4211 28.4476C72.7378 28.4354 72.0592 28.5702 71.4254 28.8441C70.7916 29.118 70.2155 29.5254 69.7312 30.0423C69.2468 30.5592 68.8641 31.175 68.6057 31.8532C68.3473 32.5315 68.2183 33.2584 68.2266 33.9911C68.2167 34.7248 68.3444 35.4532 68.6021 36.1329C68.8598 36.8127 69.2423 37.4301 69.7268 37.9483C70.2113 38.4666 70.7879 38.8752 71.4226 39.1499C72.0572 39.4247 72.7368 39.5599 73.4211 39.5476C74.1054 39.5599 74.785 39.4247 75.4196 39.1499C76.0542 38.8752 76.6309 38.4666 77.1154 37.9483C77.5999 37.4301 77.9823 36.8127 78.2401 36.1329C78.4978 35.4532 78.6255 34.7248 78.6156 33.9911C78.6238 33.2584 78.4949 32.5315 78.2365 31.8532C77.978 31.175 77.5953 30.5592 77.111 30.0423C76.6266 29.5254 76.0505 29.118 75.4167 28.8441C74.7829 28.5702 74.1043 28.4354 73.4211 28.4476ZM84.759 37.3563C83.1775 37.3563 81.8394 35.9737 81.8394 33.9911C81.8394 31.9954 83.1775 30.6389 84.759 30.6389C86.3161 30.6389 87.6786 31.9954 87.6786 33.9911C87.6786 35.9737 86.3161 37.3563 84.759 37.3563ZM84.759 28.4476C84.0757 28.4354 83.3971 28.5702 82.7633 28.8441C82.1295 29.118 81.5534 29.5254 81.0691 30.0423C80.5848 30.5592 80.2021 31.175 79.9436 31.8532C79.6852 32.5315 79.5563 33.2584 79.5645 33.9911C79.5546 34.7248 79.6823 35.4532 79.94 36.1329C80.1977 36.8127 80.5802 37.4301 81.0647 37.9483C81.5492 38.4666 82.1259 38.8752 82.7605 39.1499C83.3951 39.4247 84.0747 39.5599 84.759 39.5476C85.4433 39.5599 86.1229 39.4247 86.7575 39.1499C87.3921 38.8752 87.9688 38.4666 88.4533 37.9483C88.9378 37.4301 89.3203 36.8127 89.578 36.1329C89.8357 35.4532 89.9634 34.7248 89.9535 33.9911C89.9617 33.2584 89.8328 32.5315 89.5744 31.8532C89.3159 31.175 88.9332 30.5592 88.4489 30.0423C87.9646 29.5254 87.3885 29.118 86.7547 28.8441C86.1209 28.5702 85.4422 28.4354 84.759 28.4476Z" fill="white"/>
<path fill-rule="evenodd" clip-rule="evenodd" d="M58.4947 14.126C58.4947 15.1043 58.2271 15.8869 57.6797 16.4738C57.0714 17.1651 56.2564 17.5173 55.271 17.5173C54.3221 17.5173 53.507 17.1651 52.8379 16.4608C52.5164 16.121 52.2631 15.7143 52.0937 15.2657C51.9242 14.8171 51.8422 14.336 51.8526 13.8521C51.8526 12.8086 52.181 11.9217 52.8501 11.2173C53.507 10.513 54.3099 10.1608 55.271 10.1608C55.7332 10.1608 56.1834 10.2652 56.6091 10.4608C57.0471 10.6565 57.3877 10.9173 57.6432 11.2434L57.0592 11.8565C56.8398 11.5809 56.5647 11.3626 56.2549 11.2179C55.9451 11.0733 55.6086 11.0062 55.271 11.0217C54.5776 11.0217 53.9815 11.2826 53.4705 11.8043C52.9718 12.326 52.7163 13.0043 52.7163 13.8391C52.7163 14.6739 52.9596 15.3521 53.4705 15.8738C53.9815 16.3956 54.5654 16.6565 55.271 16.6565C56.0009 16.6565 56.6091 16.3956 57.0957 15.8738C57.412 15.5217 57.6067 15.0521 57.6553 14.4391H55.271V13.5912H58.4461C58.4826 13.7739 58.4947 13.9565 58.4947 14.113" fill="white"/>
<path fill-rule="evenodd" clip-rule="evenodd" d="M58.4945 14.126H58.385C58.385 15.0912 58.1174 15.8217 57.6065 16.3956C56.9982 17.0608 56.2318 17.3999 55.2708 17.3999C54.3462 17.3999 53.5676 17.0608 52.9229 16.3825C52.6074 16.0528 52.3592 15.6565 52.1938 15.2188C52.0284 14.781 51.9494 14.3112 51.9618 13.8391C51.9618 12.8217 52.2781 11.9869 52.935 11.2956C53.2394 10.9646 53.6035 10.7037 54.0051 10.5288C54.4067 10.3538 54.8374 10.2686 55.2708 10.2782C55.7209 10.2782 56.1588 10.3695 56.5724 10.5652C56.986 10.7608 57.3023 11.0086 57.5578 11.3217L57.643 11.2434L57.5578 11.1652L56.986 11.7782L57.059 11.8565L57.1442 11.7912C56.6941 11.2043 56.0493 10.9043 55.2708 10.9043C54.5408 10.9043 53.9204 11.1782 53.3973 11.726C52.8742 12.2608 52.6066 12.9782 52.6066 13.8391C52.6066 14.6999 52.8742 15.4043 53.3973 15.9521C53.9204 16.4999 54.553 16.7738 55.2708 16.7738C56.025 16.7738 56.6697 16.4999 57.1807 15.9521C57.5213 15.5869 57.716 15.0782 57.7646 14.4521V14.3217H55.3924V13.7086H58.458V13.5912L58.3485 13.6173C58.385 13.7869 58.3972 13.9565 58.3972 14.126H58.6162C58.6162 13.9434 58.604 13.7608 58.5675 13.5782L58.5553 13.4738H55.1491V14.5565H57.643V14.4391H57.5213C57.4848 15.026 57.3023 15.4695 57.0104 15.7825C56.5359 16.2912 55.9642 16.539 55.2586 16.539C54.5895 16.539 54.0177 16.2782 53.5311 15.7825C53.0445 15.2869 52.8012 14.6478 52.8012 13.8391C52.8012 13.0304 53.0445 12.4043 53.5311 11.8825C54.0177 11.3869 54.5895 11.1391 55.2586 11.1391C55.9885 11.1391 56.5481 11.3999 56.9617 11.9347L57.0469 12.0391L57.7038 11.3217L57.7768 11.2565L57.7159 11.1652C57.4245 10.8046 57.0577 10.523 56.6454 10.3434C56.2106 10.1454 55.7431 10.0434 55.2708 10.0434C54.2975 10.0434 53.446 10.4086 52.7769 11.1391C52.4422 11.4872 52.1777 11.9053 51.9998 12.3675C51.822 12.8297 51.7345 13.3261 51.7429 13.826C51.7429 14.8956 52.0835 15.8086 52.7769 16.539C53.1022 16.8916 53.4911 17.1694 53.9199 17.3555C54.3487 17.5417 54.8083 17.6322 55.2708 17.6217C56.2805 17.6217 57.1199 17.2564 57.7524 16.539L57.6795 16.4608L57.7524 16.5521C58.3242 15.9391 58.604 15.1173 58.604 14.113H58.4945V14.126ZM63.5431 11.1782H60.5504V13.4217H63.2511V14.2565H60.5504V16.4999H63.5431V17.3608H59.711V10.3173H63.5431V11.1782Z" fill="white"/>
<path fill-rule="evenodd" clip-rule="evenodd" d="M63.5431 11.1783V11.0609H60.441V13.5391H63.1417V14.1391H60.441V16.6174H63.4336V17.2434H59.8206V10.4348H63.4336V11.1783H63.5431V11.0609V11.1913H63.6526V10.2H59.6016V17.4782H63.6526V16.3826H60.66V14.3739H63.3607V13.3043H60.66V11.2956H63.6526V11.1783H63.531H63.5431ZM67.0954 17.3608H66.256V11.1783H64.4312V10.3174H68.9323V11.1783H67.1075V17.3608" fill="white"/>
<path fill-rule="evenodd" clip-rule="evenodd" d="M67.0955 17.3608V17.2434H66.3656V11.0609H64.5408V10.4348H68.823V11.0609H66.9982V17.3608H67.0955V17.2434V17.3739H67.2172V11.2956H69.0419V10.2H64.3097V11.2956H66.1466V17.4782H67.205V17.3608H67.0955ZM72.2049 17.3608H73.0564V10.3174H72.2049V17.3608Z" fill="white"/>
<path fill-rule="evenodd" clip-rule="evenodd" d="M72.2047 17.3608H72.3142V10.4478H72.9346V17.2434H72.2047V17.3739H72.3142H72.1926V17.4782H73.1658V10.2H72.0952V17.4782H72.2047V17.3608ZM76.791 17.3608H75.9394V11.1783H74.1147V10.3174H78.6158V11.1783H76.791V17.3608Z" fill="white"/>
<path fill-rule="evenodd" clip-rule="evenodd" d="M76.7908 17.3609V17.2435H76.0609V11.0609H74.2239V10.4348H78.5061V11.0609H76.6813V17.3609H76.7908V17.2435V17.3739H76.9003V11.2957H78.725V10.2001H74.0049V11.2957H75.8297V17.4783H76.9003V17.3609H76.7786H76.7908ZM82.9707 15.8609C83.4573 16.3826 84.0655 16.6435 84.7589 16.6435C85.4645 16.6435 86.0606 16.3826 86.5472 15.8609C87.0338 15.3392 87.2771 14.6609 87.2771 13.8392C87.2771 13.0174 87.0338 12.3522 86.5472 11.8174C86.0606 11.2957 85.4645 11.0348 84.7589 11.0348C84.0534 11.0348 83.4573 11.2957 82.9707 11.8174C82.4841 12.3392 82.2408 13.0174 82.2408 13.8392C82.2408 14.6609 82.4841 15.3392 82.9707 15.8609ZM87.1677 16.4479C86.5229 17.1652 85.72 17.5174 84.7589 17.5174C83.7979 17.5174 82.995 17.1652 82.3502 16.4479C82.0332 16.1052 81.7837 15.6977 81.6165 15.2495C81.4493 14.8014 81.3679 14.3217 81.377 13.8392C81.3673 13.3577 81.4477 12.879 81.6136 12.4314C81.7794 11.9838 82.0274 11.5765 82.3427 11.2335C82.6581 10.8905 83.0344 10.6189 83.4495 10.4346C83.8645 10.2504 84.3098 10.1573 84.7589 10.1609C85.2081 10.1573 85.6534 10.2504 86.0684 10.4346C86.4835 10.6189 86.8598 10.8905 87.1751 11.2335C87.4905 11.5765 87.7384 11.9838 87.9043 12.4314C88.0702 12.879 88.1506 13.3577 88.1409 13.8392C88.1409 14.8696 87.8124 15.7435 87.1677 16.4479Z" fill="white"/>
<path fill-rule="evenodd" clip-rule="evenodd" d="M82.9708 15.8608L82.8978 15.939C83.4088 16.4869 84.0292 16.7738 84.7591 16.7738C85.489 16.7738 86.1216 16.4869 86.6204 15.939C87.1313 15.3912 87.3868 14.6869 87.3868 13.8521C87.3868 12.9912 87.1313 12.2869 86.6204 11.7391C86.3805 11.4699 86.0914 11.2567 85.7711 11.1131C85.4508 10.9694 85.1062 10.8983 84.7591 10.9043C84.0292 10.9043 83.4088 11.1912 82.8978 11.7391C82.6444 12.0155 82.4459 12.344 82.3142 12.705C82.1824 13.0659 82.1203 13.4517 82.1314 13.8391C82.1314 14.6869 82.3869 15.4043 82.8978 15.939L83.056 15.7825C82.8212 15.5271 82.6375 15.223 82.5162 14.8888C82.3949 14.5547 82.3385 14.1974 82.3504 13.8391C82.3504 13.0565 82.5937 12.4043 83.056 11.8956C83.2763 11.651 83.5411 11.4575 83.8341 11.3274C84.1271 11.1972 84.442 11.1331 84.7591 11.1391C85.4403 11.1391 85.9999 11.3999 86.4622 11.8956C86.9367 12.4173 87.1678 13.0434 87.1678 13.8521C87.1678 14.6347 86.9245 15.2738 86.4622 15.7825C85.9999 16.2912 85.4403 16.539 84.7591 16.539C84.442 16.545 84.1271 16.4809 83.8341 16.3507C83.5411 16.2206 83.2763 16.0272 83.056 15.7825L82.9708 15.8608ZM87.1678 16.4477L87.0948 16.3695C86.4622 17.0608 85.6958 17.3999 84.7591 17.413C84.3253 17.4148 83.8956 17.3235 83.4952 17.1444C83.0949 16.9653 82.7321 16.702 82.4282 16.3701C82.1243 16.0382 81.8855 15.6444 81.7259 15.2119C81.5663 14.7795 81.4891 14.3171 81.4988 13.8521C81.4874 13.386 81.5634 12.9223 81.7223 12.4883C81.8812 12.0543 82.1197 11.6589 82.4238 11.3256C82.7278 10.9923 83.0912 10.7279 83.4924 10.5479C83.8935 10.368 84.3243 10.2763 84.7591 10.2782C85.6958 10.2782 86.4622 10.6173 87.0826 11.3217C87.7152 12.013 88.0315 12.8478 88.0315 13.8391C88.0315 14.8434 87.7152 15.6782 87.0948 16.3695L87.253 16.539C87.9099 15.8086 88.2505 14.8956 88.2505 13.8391C88.2603 13.3421 88.177 12.8482 88.0056 12.3863C87.8342 11.9245 87.5782 11.5043 87.2527 11.1504C86.9272 10.7965 86.5388 10.5162 86.1105 10.3261C85.6822 10.1359 85.2226 10.0398 84.7591 10.0434C84.2966 10.0416 83.8384 10.139 83.4115 10.3299C82.9846 10.5208 82.5976 10.8014 82.2734 11.1551C81.9492 11.5088 81.6943 11.9284 81.5236 12.3894C81.353 12.8503 81.2701 13.3432 81.2799 13.8391C81.2799 14.8956 81.6083 15.7956 82.2774 16.539C82.9343 17.2695 83.7737 17.6347 84.7591 17.6347C85.7445 17.6347 86.5839 17.2695 87.253 16.539L87.1678 16.4477ZM89.3332 17.3608V10.3173H90.3551L93.5423 15.7956H93.5788L93.5423 14.4391V10.3173H94.3939V17.3608H93.5058L90.1604 11.6217H90.1239L90.1604 12.9782V17.3608H89.321" fill="white"/>
<path fill-rule="evenodd" clip-rule="evenodd" d="M89.333 17.3608H89.4304V10.4478H90.2819L93.4814 15.9261H93.6882L93.6517 14.4391V10.4348H94.2721V17.2434H93.5665L90.2211 11.5043H90.0143L90.0508 12.9782V17.2434H89.3209V17.3739H89.4425H89.3209V17.4782H90.2698V12.9782L90.2333 11.6087H90.1238V11.7391H90.1603V11.6087L90.0751 11.6739L93.4449 17.4782H94.4911V10.2H93.4327V14.4391L93.4692 15.7956H93.5787V15.6782H93.5422V15.8087L93.6395 15.7304L90.4157 10.2H89.2114V17.4782H89.333V17.3608Z" fill="white"/>
</svg>
