<svg width="146" height="39" viewBox="0 0 146 39" fill="none" xmlns="http://www.w3.org/2000/svg">
<path d="M87.5645 36.5869H84.835L91.6396 16.5156H94.3691L87.5645 36.5869ZM99.5742 21.2637L99.6885 22.7998C100.662 21.6064 101.978 21.0098 103.637 21.0098C105.406 21.0098 106.62 21.708 107.28 23.1045C108.245 21.708 109.62 21.0098 111.406 21.0098C112.896 21.0098 114.005 21.4456 114.732 22.3174C115.46 23.1807 115.824 24.484 115.824 26.2275V35H112.143V26.2402C112.143 25.4616 111.99 24.8945 111.686 24.5391C111.381 24.1751 110.843 23.9932 110.073 23.9932C108.973 23.9932 108.211 24.5179 107.788 25.5674L107.801 35H104.132V26.2529C104.132 25.4574 103.975 24.8818 103.662 24.5264C103.349 24.1709 102.816 23.9932 102.062 23.9932C101.021 23.9932 100.268 24.4248 99.8027 25.2881V35H96.1338V21.2637H99.5742ZM124.978 35.2539C122.963 35.2539 121.321 34.6361 120.052 33.4004C118.791 32.1647 118.16 30.5186 118.16 28.4619V28.1064C118.16 26.7269 118.427 25.4954 118.96 24.4121C119.493 23.3203 120.246 22.4824 121.22 21.8984C122.201 21.306 123.319 21.0098 124.571 21.0098C126.45 21.0098 127.927 21.6022 129.002 22.7871C130.085 23.972 130.627 25.652 130.627 27.8271V29.3252H121.88C121.998 30.2223 122.354 30.9417 122.946 31.4834C123.547 32.0251 124.305 32.2959 125.219 32.2959C126.632 32.2959 127.737 31.7839 128.532 30.7598L130.335 32.7783C129.785 33.557 129.04 34.1663 128.101 34.6064C127.161 35.0381 126.12 35.2539 124.978 35.2539ZM124.559 23.9805C123.831 23.9805 123.238 24.2259 122.781 24.7168C122.333 25.2077 122.045 25.9102 121.918 26.8242H127.021V26.5322C127.005 25.7197 126.785 25.0934 126.361 24.6533C125.938 24.2048 125.337 23.9805 124.559 23.9805ZM129.027 19.0547V19.207H126.107L124.152 17.3662L122.197 19.207H119.328V19.0039L123.086 15.5H125.219L129.027 19.0547ZM140.161 31.2041C140.161 30.7555 139.937 30.4043 139.488 30.1504C139.048 29.888 138.337 29.6553 137.355 29.4521C134.089 28.7666 132.455 27.3786 132.455 25.2881C132.455 24.0693 132.959 23.0537 133.966 22.2412C134.981 21.4202 136.306 21.0098 137.939 21.0098C139.683 21.0098 141.075 21.4202 142.116 22.2412C143.166 23.0622 143.69 24.1286 143.69 25.4404H140.021C140.021 24.9157 139.852 24.484 139.514 24.1455C139.175 23.7985 138.646 23.625 137.927 23.625C137.309 23.625 136.831 23.7646 136.492 24.0439C136.154 24.3232 135.984 24.6787 135.984 25.1104C135.984 25.5166 136.175 25.8467 136.556 26.1006C136.945 26.346 137.597 26.5618 138.511 26.748C139.425 26.9258 140.195 27.1289 140.821 27.3574C142.759 28.0684 143.729 29.2998 143.729 31.0518C143.729 32.3044 143.191 33.32 142.116 34.0986C141.041 34.8688 139.653 35.2539 137.952 35.2539C136.801 35.2539 135.777 35.0508 134.88 34.6445C133.991 34.2298 133.293 33.667 132.785 32.9561C132.277 32.2367 132.023 31.4622 132.023 30.6328H135.502C135.536 31.2845 135.777 31.7839 136.226 32.1309C136.674 32.4779 137.275 32.6514 138.028 32.6514C138.731 32.6514 139.26 32.5202 139.615 32.2578C139.979 31.987 140.161 31.6357 140.161 31.2041Z" fill="#293145"/>
<path d="M51.7822 37H27.417V32.166L38.916 19.9102C40.4948 18.1849 41.6585 16.6794 42.4072 15.3936C43.1722 14.1077 43.5547 12.887 43.5547 11.7314C43.5547 10.1527 43.1559 8.91569 42.3584 8.02051C41.5609 7.10905 40.4215 6.65332 38.9404 6.65332C37.3454 6.65332 36.084 7.20671 35.1562 8.31348C34.2448 9.40397 33.7891 10.8444 33.7891 12.6348H26.709C26.709 10.4701 27.2217 8.49251 28.2471 6.70215C29.2887 4.91178 30.7536 3.51204 32.6416 2.50293C34.5296 1.47754 36.6699 0.964844 39.0625 0.964844C42.7246 0.964844 45.5648 1.84375 47.583 3.60156C49.6175 5.35938 50.6348 7.84147 50.6348 11.0479C50.6348 12.8057 50.179 14.596 49.2676 16.4189C48.3561 18.2419 46.7936 20.3659 44.5801 22.791L36.499 31.3115H51.7822V37ZM79.2969 10.9014C79.2969 12.6266 78.8656 14.1566 78.0029 15.4912C77.1403 16.8258 75.9521 17.8919 74.4385 18.6895C76.1637 19.5195 77.5309 20.667 78.54 22.1318C79.5492 23.5804 80.0537 25.2894 80.0537 27.2588C80.0537 30.4163 78.9795 32.9147 76.8311 34.7539C74.6826 36.5768 71.7611 37.4883 68.0664 37.4883C64.3717 37.4883 61.4421 36.5687 59.2773 34.7295C57.1126 32.8903 56.0303 30.4001 56.0303 27.2588C56.0303 25.2894 56.5348 23.5723 57.5439 22.1074C58.5531 20.6426 59.9121 19.5033 61.6211 18.6895C60.1074 17.8919 58.9193 16.8258 58.0566 15.4912C57.2103 14.1566 56.7871 12.6266 56.7871 10.9014C56.7871 7.87402 57.7962 5.46517 59.8145 3.6748C61.8327 1.86816 64.5752 0.964844 68.042 0.964844C71.4925 0.964844 74.2269 1.86003 76.2451 3.65039C78.2796 5.42448 79.2969 7.84147 79.2969 10.9014ZM72.9736 26.7461C72.9736 25.1999 72.526 23.9629 71.6309 23.0352C70.7357 22.1074 69.5312 21.6436 68.0176 21.6436C66.5202 21.6436 65.3239 22.1074 64.4287 23.0352C63.5335 23.9466 63.0859 25.1836 63.0859 26.7461C63.0859 28.2598 63.5254 29.4805 64.4043 30.4082C65.2832 31.3359 66.5039 31.7998 68.0664 31.7998C69.5964 31.7998 70.7926 31.3522 71.6553 30.457C72.5342 29.5618 72.9736 28.3249 72.9736 26.7461ZM72.2412 11.2432C72.2412 9.8597 71.875 8.75293 71.1426 7.92285C70.4102 7.0765 69.3766 6.65332 68.042 6.65332C66.7236 6.65332 65.6982 7.06022 64.9658 7.87402C64.2334 8.68783 63.8672 9.81087 63.8672 11.2432C63.8672 12.6592 64.2334 13.7985 64.9658 14.6611C65.6982 15.5238 66.7318 15.9551 68.0664 15.9551C69.401 15.9551 70.4264 15.5238 71.1426 14.6611C71.875 13.7985 72.2412 12.6592 72.2412 11.2432Z" fill="#293145"/>
<path d="M6.5332 12.7949H4.19922V18H1.26953V3.78125H6.55273C8.23242 3.78125 9.52799 4.1556 10.4395 4.9043C11.3509 5.65299 11.8066 6.71094 11.8066 8.07812C11.8066 9.04818 11.5951 9.85872 11.1719 10.5098C10.7552 11.1543 10.1204 11.6686 9.26758 12.0527L12.3438 17.8633V18H9.19922L6.5332 12.7949ZM4.19922 10.4219H6.5625C7.29818 10.4219 7.86784 10.2363 8.27148 9.86523C8.67513 9.48763 8.87695 8.97005 8.87695 8.3125C8.87695 7.64193 8.6849 7.11458 8.30078 6.73047C7.92318 6.34635 7.34049 6.1543 6.55273 6.1543H4.19922V10.4219ZM20.4883 14.2598C20.4883 13.7259 20.3385 13.3027 20.0391 12.9902C19.7461 12.6712 19.2448 12.3783 18.5352 12.1113C17.8255 11.8444 17.2135 11.5807 16.6992 11.3203C16.1849 11.0534 15.7422 10.7507 15.3711 10.4121C15.0065 10.0671 14.7201 9.66341 14.5117 9.20117C14.3099 8.73893 14.209 8.1888 14.209 7.55078C14.209 6.45052 14.5605 5.54883 15.2637 4.8457C15.9668 4.14258 16.901 3.73242 18.0664 3.61523V1.52539H19.6289V3.64453C20.7812 3.80729 21.6829 4.28906 22.334 5.08984C22.985 5.88411 23.3105 6.91602 23.3105 8.18555H20.4883C20.4883 7.4043 20.3255 6.82161 20 6.4375C19.681 6.04688 19.2513 5.85156 18.7109 5.85156C18.1771 5.85156 17.7637 6.00456 17.4707 6.31055C17.1777 6.61003 17.0312 7.02669 17.0312 7.56055C17.0312 8.05534 17.1745 8.45247 17.4609 8.75195C17.7474 9.05143 18.278 9.35742 19.0527 9.66992C19.834 9.98242 20.4753 10.2786 20.9766 10.5586C21.4779 10.832 21.901 11.1445 22.2461 11.4961C22.5911 11.8411 22.8548 12.2383 23.0371 12.6875C23.2194 13.1302 23.3105 13.6478 23.3105 14.2402C23.3105 15.347 22.9655 16.2454 22.2754 16.9355C21.5853 17.6257 20.6348 18.0326 19.4238 18.1562V20.0996H17.8711V18.166C16.5365 18.0228 15.5013 17.5508 14.7656 16.75C14.0365 15.9427 13.6719 14.8717 13.6719 13.5371H16.4941C16.4941 14.3118 16.6764 14.9076 17.041 15.3242C17.4121 15.7344 17.9427 15.9395 18.6328 15.9395C19.2057 15.9395 19.6582 15.7897 19.9902 15.4902C20.3223 15.1842 20.4883 14.7741 20.4883 14.2598Z" fill="#293145"/>
</svg>
