<svg width="146" height="39" viewBox="0 0 146 39" fill="none" xmlns="http://www.w3.org/2000/svg">
<path d="M87.5645 36.2542H84.835L91.6396 16.1829H94.3691L87.5645 36.2542ZM99.5742 20.9309L99.6885 22.467C100.662 21.2737 101.978 20.677 103.637 20.677C105.406 20.677 106.62 21.3752 107.28 22.7717C108.245 21.3752 109.62 20.677 111.406 20.677C112.896 20.677 114.005 21.1129 114.732 21.9846C115.46 22.8479 115.824 24.1513 115.824 25.8948V34.6672H112.143V25.9075C112.143 25.1288 111.99 24.5618 111.686 24.2063C111.381 23.8424 110.843 23.6604 110.073 23.6604C108.973 23.6604 108.211 24.1851 107.788 25.2346L107.801 34.6672H104.132V25.9202C104.132 25.1246 103.975 24.5491 103.662 24.1936C103.349 23.8381 102.816 23.6604 102.062 23.6604C101.021 23.6604 100.268 24.092 99.8027 24.9553V34.6672H96.1338V20.9309H99.5742ZM124.978 34.9211C122.963 34.9211 121.321 34.3033 120.052 33.0676C118.791 31.8319 118.16 30.1858 118.16 28.1292V27.7737C118.16 26.3941 118.427 25.1627 118.96 24.0793C119.493 22.9875 120.246 22.1497 121.22 21.5657C122.201 20.9732 123.319 20.677 124.571 20.677C126.45 20.677 127.927 21.2694 129.002 22.4543C130.085 23.6392 130.627 25.3193 130.627 27.4944V28.9924H121.88C121.998 29.8896 122.354 30.609 122.946 31.1506C123.547 31.6923 124.305 31.9631 125.219 31.9631C126.632 31.9631 127.737 31.4511 128.532 30.427L130.335 32.4456C129.785 33.2242 129.04 33.8336 128.101 34.2737C127.161 34.7053 126.12 34.9211 124.978 34.9211ZM124.559 23.6477C123.831 23.6477 123.238 23.8931 122.781 24.384C122.333 24.8749 122.045 25.5774 121.918 26.4915H127.021V26.1995C127.005 25.387 126.785 24.7607 126.361 24.3206C125.938 23.872 125.337 23.6477 124.559 23.6477ZM129.027 18.7219V18.8743H126.107L124.152 17.0334L122.197 18.8743H119.328V18.6711L123.086 15.1672H125.219L129.027 18.7219ZM140.161 30.8713C140.161 30.4228 139.937 30.0715 139.488 29.8176C139.048 29.5553 138.337 29.3225 137.355 29.1194C134.089 28.4338 132.455 27.0458 132.455 24.9553C132.455 23.7366 132.959 22.7209 133.966 21.9084C134.981 21.0875 136.306 20.677 137.939 20.677C139.683 20.677 141.075 21.0875 142.116 21.9084C143.166 22.7294 143.69 23.7958 143.69 25.1077H140.021C140.021 24.5829 139.852 24.1513 139.514 23.8127C139.175 23.4657 138.646 23.2922 137.927 23.2922C137.309 23.2922 136.831 23.4319 136.492 23.7112C136.154 23.9905 135.984 24.3459 135.984 24.7776C135.984 25.1838 136.175 25.5139 136.556 25.7678C136.945 26.0133 137.597 26.2291 138.511 26.4153C139.425 26.593 140.195 26.7961 140.821 27.0247C142.759 27.7356 143.729 28.967 143.729 30.719C143.729 31.9716 143.191 32.9872 142.116 33.7659C141.041 34.5361 139.653 34.9211 137.952 34.9211C136.801 34.9211 135.777 34.718 134.88 34.3118C133.991 33.8971 133.293 33.3342 132.785 32.6233C132.277 31.9039 132.023 31.1295 132.023 30.3H135.502C135.536 30.9517 135.777 31.4511 136.226 31.7981C136.674 32.1451 137.275 32.3186 138.028 32.3186C138.731 32.3186 139.26 32.1874 139.615 31.925C139.979 31.6542 140.161 31.303 140.161 30.8713Z" fill="white"/>
<path d="M28.4668 18.5195L30.5176 0.453125H50.4395V6.33691H36.3037L35.4248 13.9785C37.1012 13.0833 38.8835 12.6357 40.7715 12.6357C44.1569 12.6357 46.8099 13.6855 48.7305 15.7852C50.651 17.8848 51.6113 20.8226 51.6113 24.5986C51.6113 26.8936 51.123 28.9525 50.1465 30.7754C49.1862 32.582 47.8027 33.9899 45.9961 34.999C44.1895 35.9919 42.0573 36.4883 39.5996 36.4883C37.4512 36.4883 35.4574 36.057 33.6182 35.1943C31.779 34.3154 30.3223 33.0866 29.248 31.5078C28.1901 29.929 27.6286 28.1305 27.5635 26.1123H34.5459C34.6924 27.5934 35.2051 28.749 36.084 29.5791C36.9792 30.3929 38.1429 30.7998 39.5752 30.7998C41.1702 30.7998 42.3991 30.2301 43.2617 29.0908C44.1243 27.9352 44.5557 26.3076 44.5557 24.208C44.5557 22.1898 44.0592 20.6436 43.0664 19.5693C42.0736 18.4951 40.6657 17.958 38.8428 17.958C37.1663 17.958 35.8073 18.3975 34.7656 19.2764L34.082 19.9111L28.4668 18.5195ZM80.2979 4.4082L66.5527 36H59.1064L72.876 6.16602H55.2002V0.453125H80.2979V4.4082Z" fill="white"/>
<path d="M6.5332 12.7949H4.19922V18H1.26953V3.78125H6.55273C8.23242 3.78125 9.52799 4.1556 10.4395 4.9043C11.3509 5.65299 11.8066 6.71094 11.8066 8.07812C11.8066 9.04818 11.5951 9.85872 11.1719 10.5098C10.7552 11.1543 10.1204 11.6686 9.26758 12.0527L12.3438 17.8633V18H9.19922L6.5332 12.7949ZM4.19922 10.4219H6.5625C7.29818 10.4219 7.86784 10.2363 8.27148 9.86523C8.67513 9.48763 8.87695 8.97005 8.87695 8.3125C8.87695 7.64193 8.6849 7.11458 8.30078 6.73047C7.92318 6.34635 7.34049 6.1543 6.55273 6.1543H4.19922V10.4219ZM20.4883 14.2598C20.4883 13.7259 20.3385 13.3027 20.0391 12.9902C19.7461 12.6712 19.2448 12.3783 18.5352 12.1113C17.8255 11.8444 17.2135 11.5807 16.6992 11.3203C16.1849 11.0534 15.7422 10.7507 15.3711 10.4121C15.0065 10.0671 14.7201 9.66341 14.5117 9.20117C14.3099 8.73893 14.209 8.1888 14.209 7.55078C14.209 6.45052 14.5605 5.54883 15.2637 4.8457C15.9668 4.14258 16.901 3.73242 18.0664 3.61523V1.52539H19.6289V3.64453C20.7812 3.80729 21.6829 4.28906 22.334 5.08984C22.985 5.88411 23.3105 6.91602 23.3105 8.18555H20.4883C20.4883 7.4043 20.3255 6.82161 20 6.4375C19.681 6.04688 19.2513 5.85156 18.7109 5.85156C18.1771 5.85156 17.7637 6.00456 17.4707 6.31055C17.1777 6.61003 17.0312 7.02669 17.0312 7.56055C17.0312 8.05534 17.1745 8.45247 17.4609 8.75195C17.7474 9.05143 18.278 9.35742 19.0527 9.66992C19.834 9.98242 20.4753 10.2786 20.9766 10.5586C21.4779 10.832 21.901 11.1445 22.2461 11.4961C22.5911 11.8411 22.8548 12.2383 23.0371 12.6875C23.2194 13.1302 23.3105 13.6478 23.3105 14.2402C23.3105 15.347 22.9655 16.2454 22.2754 16.9355C21.5853 17.6257 20.6348 18.0326 19.4238 18.1562V20.0996H17.8711V18.166C16.5365 18.0228 15.5013 17.5508 14.7656 16.75C14.0365 15.9427 13.6719 14.8717 13.6719 13.5371H16.4941C16.4941 14.3118 16.6764 14.9076 17.041 15.3242C17.4121 15.7344 17.9427 15.9395 18.6328 15.9395C19.2057 15.9395 19.6582 15.7897 19.9902 15.4902C20.3223 15.1842 20.4883 14.7741 20.4883 14.2598Z" fill="white"/>
</svg>
