<svg width="146" height="40" viewBox="0 0 146 40" fill="none" xmlns="http://www.w3.org/2000/svg">
<path d="M87.5645 37.2542H84.835L91.6396 17.1829H94.3691L87.5645 37.2542ZM99.5742 21.9309L99.6885 23.467C100.662 22.2737 101.978 21.677 103.637 21.677C105.406 21.677 106.62 22.3752 107.28 23.7717C108.245 22.3752 109.62 21.677 111.406 21.677C112.896 21.677 114.005 22.1129 114.732 22.9846C115.46 23.8479 115.824 25.1513 115.824 26.8948V35.6672H112.143V26.9075C112.143 26.1288 111.99 25.5618 111.686 25.2063C111.381 24.8424 110.843 24.6604 110.073 24.6604C108.973 24.6604 108.211 25.1851 107.788 26.2346L107.801 35.6672H104.132V26.9202C104.132 26.1246 103.975 25.5491 103.662 25.1936C103.349 24.8381 102.816 24.6604 102.062 24.6604C101.021 24.6604 100.268 25.092 99.8027 25.9553V35.6672H96.1338V21.9309H99.5742ZM124.978 35.9211C122.963 35.9211 121.321 35.3033 120.052 34.0676C118.791 32.8319 118.16 31.1858 118.16 29.1292V28.7737C118.16 27.3941 118.427 26.1627 118.96 25.0793C119.493 23.9875 120.246 23.1497 121.22 22.5657C122.201 21.9732 123.319 21.677 124.571 21.677C126.45 21.677 127.927 22.2694 129.002 23.4543C130.085 24.6392 130.627 26.3193 130.627 28.4944V29.9924H121.88C121.998 30.8896 122.354 31.609 122.946 32.1506C123.547 32.6923 124.305 32.9631 125.219 32.9631C126.632 32.9631 127.737 32.4511 128.532 31.427L130.335 33.4456C129.785 34.2242 129.04 34.8336 128.101 35.2737C127.161 35.7053 126.12 35.9211 124.978 35.9211ZM124.559 24.6477C123.831 24.6477 123.238 24.8931 122.781 25.384C122.333 25.8749 122.045 26.5774 121.918 27.4915H127.021V27.1995C127.005 26.387 126.785 25.7607 126.361 25.3206C125.938 24.872 125.337 24.6477 124.559 24.6477ZM129.027 19.7219V19.8743H126.107L124.152 18.0334L122.197 19.8743H119.328V19.6711L123.086 16.1672H125.219L129.027 19.7219ZM140.161 31.8713C140.161 31.4228 139.937 31.0715 139.488 30.8176C139.048 30.5553 138.337 30.3225 137.355 30.1194C134.089 29.4338 132.455 28.0458 132.455 25.9553C132.455 24.7366 132.959 23.7209 133.966 22.9084C134.981 22.0875 136.306 21.677 137.939 21.677C139.683 21.677 141.075 22.0875 142.116 22.9084C143.166 23.7294 143.69 24.7958 143.69 26.1077H140.021C140.021 25.5829 139.852 25.1513 139.514 24.8127C139.175 24.4657 138.646 24.2922 137.927 24.2922C137.309 24.2922 136.831 24.4319 136.492 24.7112C136.154 24.9905 135.984 25.3459 135.984 25.7776C135.984 26.1838 136.175 26.5139 136.556 26.7678C136.945 27.0133 137.597 27.2291 138.511 27.4153C139.425 27.593 140.195 27.7961 140.821 28.0247C142.759 28.7356 143.729 29.967 143.729 31.719C143.729 32.9716 143.191 33.9872 142.116 34.7659C141.041 35.5361 139.653 35.9211 137.952 35.9211C136.801 35.9211 135.777 35.718 134.88 35.3118C133.991 34.8971 133.293 34.3342 132.785 33.6233C132.277 32.9039 132.023 32.1295 132.023 31.3H135.502C135.536 31.9517 135.777 32.4511 136.226 32.7981C136.674 33.1451 137.275 33.3186 138.028 33.3186C138.731 33.3186 139.26 33.1874 139.615 32.925C139.979 32.6542 140.161 32.303 140.161 31.8713Z" fill="#293145"/>
<path d="M43.9209 22.791C42.0817 24.5977 39.9333 25.501 37.4756 25.501C34.3343 25.501 31.8197 24.4268 29.9316 22.2783C28.0436 20.1136 27.0996 17.2002 27.0996 13.5381C27.0996 11.2106 27.6042 9.07845 28.6133 7.1416C29.6387 5.18848 31.0628 3.6748 32.8857 2.60059C34.7087 1.51009 36.7594 0.964844 39.0381 0.964844C41.3818 0.964844 43.4652 1.55078 45.2881 2.72266C47.111 3.89453 48.527 5.5791 49.5361 7.77637C50.5452 9.97363 51.0579 12.4883 51.0742 15.3203V17.9326C51.0742 23.8571 49.6012 28.512 46.6553 31.8975C43.7093 35.2829 39.5345 37.0895 34.1309 37.3174L32.3975 37.3418V31.458L33.96 31.4336C40.096 31.1569 43.4163 28.276 43.9209 22.791ZM39.209 20.1055C40.3483 20.1055 41.3249 19.8125 42.1387 19.2266C42.9688 18.6406 43.5954 17.9326 44.0186 17.1025V14.1973C44.0186 11.8047 43.5628 9.94922 42.6514 8.63086C41.7399 7.3125 40.5192 6.65332 38.9893 6.65332C37.5732 6.65332 36.4095 7.30436 35.498 8.60645C34.5866 9.89225 34.1309 11.5117 34.1309 13.4648C34.1309 15.4017 34.5703 16.9967 35.4492 18.25C36.3444 19.487 37.5977 20.1055 39.209 20.1055ZM77.002 23.6211H81.0303V29.3096H77.002V37H69.9463V29.3096H55.3711L55.0537 24.8662L69.873 1.45312H77.002V23.6211ZM62.085 23.6211H69.9463V11.0723L69.4824 11.8779L62.085 23.6211Z" fill="#293145"/>
<path d="M6.5332 13.7949H4.19922V19H1.26953V4.78125H6.55273C8.23242 4.78125 9.52799 5.1556 10.4395 5.9043C11.3509 6.65299 11.8066 7.71094 11.8066 9.07812C11.8066 10.0482 11.5951 10.8587 11.1719 11.5098C10.7552 12.1543 10.1204 12.6686 9.26758 13.0527L12.3438 18.8633V19H9.19922L6.5332 13.7949ZM4.19922 11.4219H6.5625C7.29818 11.4219 7.86784 11.2363 8.27148 10.8652C8.67513 10.4876 8.87695 9.97005 8.87695 9.3125C8.87695 8.64193 8.6849 8.11458 8.30078 7.73047C7.92318 7.34635 7.34049 7.1543 6.55273 7.1543H4.19922V11.4219ZM20.4883 15.2598C20.4883 14.7259 20.3385 14.3027 20.0391 13.9902C19.7461 13.6712 19.2448 13.3783 18.5352 13.1113C17.8255 12.8444 17.2135 12.5807 16.6992 12.3203C16.1849 12.0534 15.7422 11.7507 15.3711 11.4121C15.0065 11.0671 14.7201 10.6634 14.5117 10.2012C14.3099 9.73893 14.209 9.1888 14.209 8.55078C14.209 7.45052 14.5605 6.54883 15.2637 5.8457C15.9668 5.14258 16.901 4.73242 18.0664 4.61523V2.52539H19.6289V4.64453C20.7812 4.80729 21.6829 5.28906 22.334 6.08984C22.985 6.88411 23.3105 7.91602 23.3105 9.18555H20.4883C20.4883 8.4043 20.3255 7.82161 20 7.4375C19.681 7.04688 19.2513 6.85156 18.7109 6.85156C18.1771 6.85156 17.7637 7.00456 17.4707 7.31055C17.1777 7.61003 17.0312 8.02669 17.0312 8.56055C17.0312 9.05534 17.1745 9.45247 17.4609 9.75195C17.7474 10.0514 18.278 10.3574 19.0527 10.6699C19.834 10.9824 20.4753 11.2786 20.9766 11.5586C21.4779 11.832 21.901 12.1445 22.2461 12.4961C22.5911 12.8411 22.8548 13.2383 23.0371 13.6875C23.2194 14.1302 23.3105 14.6478 23.3105 15.2402C23.3105 16.347 22.9655 17.2454 22.2754 17.9355C21.5853 18.6257 20.6348 19.0326 19.4238 19.1562V21.0996H17.8711V19.166C16.5365 19.0228 15.5013 18.5508 14.7656 17.75C14.0365 16.9427 13.6719 15.8717 13.6719 14.5371H16.4941C16.4941 15.3118 16.6764 15.9076 17.041 16.3242C17.4121 16.7344 17.9427 16.9395 18.6328 16.9395C19.2057 16.9395 19.6582 16.7897 19.9902 16.4902C20.3223 16.1842 20.4883 15.7741 20.4883 15.2598Z" fill="#293145"/>
</svg>
